<svg width="945" height="138" viewBox="0 0 945 138" fill="none" xmlns="http://www.w3.org/2000/svg">
<mask id="mask0_1612_5956" style="mask-type:luminance" maskUnits="userSpaceOnUse" x="0" y="0" width="945" height="138">
<path d="M0 3.9041e-06H945V138H0V3.9041e-06Z" fill="white"/>
</mask>
<g mask="url(#mask0_1612_5956)">
<path d="M196.935 119.916V135.848C196.696 135.848 196.457 135.848 196.218 135.835C165.907 135.582 138.795 118.575 125.373 91.3308C119.53 79.4874 116.77 67.5383 117.194 55.8288C117.433 49.4163 118.243 43.8666 119.425 38.9402L22.5168 135.835H0L131.799 4.03528C135.237 0.596945 140.561 0.185145 144.478 3.07979C148.394 5.96034 149.589 11.1788 147.319 15.4669C146.31 17.3788 145.275 19.2505 144.213 21.1363C138.822 30.7889 133.724 39.9098 133.127 56.4128C132.794 65.4541 134.998 74.8278 139.672 84.2809C150.492 106.267 172.439 119.916 196.935 119.916Z" fill="#0040D6"/>
<path d="M173.879 57.5405C166.454 62.473 158.067 62.908 155.147 58.5121C152.227 54.1163 155.879 46.555 163.305 41.6215C170.73 36.689 179.116 36.2541 182.037 40.6499C184.956 45.0457 181.305 52.6081 173.879 57.5405Z" fill="#0040D6"/>
<path d="M193.047 88.8469C185.622 93.7794 177.235 94.2144 174.315 89.8185C171.395 85.4227 175.047 77.8614 182.473 72.9279C189.898 67.9954 198.284 67.5605 201.205 71.9563C204.124 76.3521 200.473 83.9145 193.047 88.8469Z" fill="#0040D6"/>
<path d="M245.011 60.2731H259.658C259.658 63.8745 260.958 66.8769 263.561 69.2772C266.16 71.6785 269.383 72.8786 273.226 72.8786C276.906 72.8786 279.989 71.8406 282.47 69.7575C284.952 67.6763 286.192 65.1159 286.192 62.0733C286.192 55.9105 280.67 51.4291 269.624 48.627C254.094 44.6249 246.332 36.2591 246.332 23.5327C246.332 16.8091 248.853 11.2463 253.895 6.84345C259.017 2.28149 265.342 6.9915e-06 272.866 6.9915e-06C280.468 6.9915e-06 286.833 2.32276 291.955 6.96326C297.077 11.6068 299.641 17.4092 299.641 24.3734H284.992C284.992 21.0922 283.831 18.3505 281.509 16.1486C279.188 13.9487 276.267 12.8472 272.745 12.8472C269.383 12.8472 266.581 13.8077 264.341 15.7288C262.1 17.6498 260.979 20.0914 260.979 23.0525C260.979 29.1357 266.141 33.4188 276.467 35.8987C292.716 40.0629 300.841 48.467 300.841 61.1128C300.841 68.2381 298.157 74.1211 292.796 78.7626C287.592 83.4051 280.989 85.7258 272.987 85.7258C265.14 85.7258 258.496 83.3245 253.054 78.5219C247.692 73.6408 245.011 67.5575 245.011 60.2731Z" fill="black"/>
<path d="M369.277 35.8988V1.4409H383.445V84.2852H369.277V49.346H328.696V84.2852H314.408V1.4409H328.696V35.8988H369.277Z" fill="black"/>
<path d="M435.192 17.0492L421.384 53.4281H449L435.192 17.0492ZM476.494 84.2855H460.765L454.042 66.6357H416.342L409.617 84.2855H394.249L426.907 1.44025H443.836L476.494 84.2855Z" fill="black"/>
<path d="M515.035 14.8882H501.587V40.942H515.035C518.715 40.942 521.757 39.7026 524.159 37.2197C526.561 34.7399 527.761 31.6187 527.761 27.8552C527.761 24.0936 526.561 20.9926 524.159 18.55C521.757 16.1095 518.715 14.8882 515.035 14.8882ZM544.329 84.2852H527.161L509.152 53.4277H501.587V84.2852H487.299V1.44089H515.274C523.118 1.44089 529.601 3.962 534.725 9.00422C539.928 13.9689 542.529 20.2123 542.529 27.7343C542.529 33.4985 540.908 38.5608 537.667 42.9234C534.425 47.2871 530.121 50.3065 524.76 51.988L544.329 84.2852Z" fill="black"/>
<path d="M570.503 41.9023H584.671C588.432 41.9023 591.575 40.6226 594.095 38.0602C596.617 35.4998 597.877 32.2971 597.877 28.455C597.877 24.5344 596.617 21.2924 594.095 18.73C591.575 16.1686 588.432 14.8879 584.671 14.8879H570.503V41.9023ZM556.214 1.44066H584.911C592.913 1.44066 599.517 4.00304 604.722 9.1248C610.004 14.3291 612.645 20.7708 612.645 28.455C612.645 36.1402 609.963 42.5436 604.602 47.6654C599.397 52.7892 592.834 55.3495 584.911 55.3495H570.503V84.2849H556.214V1.44066Z" fill="black"/>
<path d="M667.273 41.9023H681.442C685.202 41.9023 688.345 40.6226 690.865 38.0602C693.387 35.4998 694.647 32.2971 694.647 28.455C694.647 24.5344 693.387 21.2924 690.865 18.73C688.345 16.1686 685.202 14.8879 681.442 14.8879H667.273V41.9023ZM652.984 1.44066H681.681C689.683 1.44066 696.287 4.00304 701.492 9.1248C706.774 14.3291 709.415 20.7708 709.415 28.455C709.415 36.1402 706.733 42.5436 701.372 47.6654C696.167 52.7892 689.604 55.3495 681.681 55.3495H667.273V84.2849H652.984V1.44066Z" fill="black"/>
<path d="M735.709 49.346V70.8379H768.726V84.2852H721.42V1.4409H768.126V14.8882H735.709V35.8988H764.164V49.346H735.709Z" fill="black"/>
<path d="M816.631 17.0492L802.824 53.4281H830.439L816.631 17.0492ZM857.934 84.2855H842.205L835.481 66.6357H797.781L791.057 84.2855H775.688L808.346 1.44025H825.275L857.934 84.2855Z" fill="black"/>
<path d="M935.495 84.2853H917.605L890.832 49.3461H883.028V84.2853H868.739V1.44001H883.028V35.8989H890.951L917.125 1.44001H934.655L903.078 42.2621L935.495 84.2853Z" fill="black"/>
<path d="M251.415 128.553V104.246H245.551C245.204 104.246 245.011 104.091 245.011 103.743V102.624C245.011 102.277 245.204 102.083 245.551 102.083H259.672C260.021 102.083 260.213 102.277 260.213 102.624V103.743C260.213 104.091 260.021 104.246 259.672 104.246H253.808V128.553C253.808 128.9 253.615 129.093 253.269 129.093H251.918C251.57 129.093 251.415 128.9 251.415 128.553Z" fill="black"/>
<path d="M277.308 118.56C277.192 114.624 274.607 111.807 270.517 111.807C266.505 111.807 263.726 114.47 263.38 118.56H277.308ZM261.103 119.563C261.103 114.006 264.961 109.725 270.556 109.725C276.151 109.725 279.352 114.045 279.352 118.637C279.352 119.986 279.121 120.45 278.081 120.45H263.341C263.687 124.463 266.389 127.55 271.25 127.55C273.72 127.55 275.418 126.739 276.883 125.621C277.038 125.466 277.308 125.466 277.423 125.621L277.963 126.314C278.234 126.662 278.081 126.855 277.81 127.126C276.111 128.746 273.682 129.555 271.057 129.555C264.884 129.555 261.103 125.042 261.103 119.563Z" fill="black"/>
<path d="M283.521 119.64C283.521 113.968 287.766 109.725 293.361 109.725C296.332 109.725 298.761 110.881 300.382 112.81C300.615 113.158 300.691 113.35 300.46 113.583L299.726 114.277C299.38 114.663 299.071 114.47 298.877 114.238C297.643 112.926 296.061 111.885 293.438 111.885C289.078 111.885 285.798 115.048 285.798 119.64C285.798 124.232 289.078 127.358 293.477 127.358C296.1 127.358 297.681 126.353 298.839 125.081C299.11 124.81 299.418 124.617 299.766 124.965L300.499 125.697C300.731 125.93 300.653 126.122 300.422 126.43C298.801 128.4 296.37 129.555 293.323 129.555C287.766 129.555 283.521 125.313 283.521 119.64Z" fill="black"/>
<path d="M305.748 128.553V102.046C305.748 101.699 305.864 101.505 306.212 101.505H307.561C307.91 101.505 308.064 101.699 308.064 102.046V113.235C309.144 111.306 311.227 109.724 314.43 109.724C318.559 109.724 321.337 112.386 321.337 117.402V128.553C321.337 128.9 321.182 129.093 320.835 129.093H319.484C319.137 129.093 319.021 128.9 319.021 128.553V117.518C319.021 114.045 317.13 111.885 313.851 111.885C310.571 111.885 308.064 114.045 308.064 117.518V128.553C308.064 128.9 307.91 129.093 307.561 129.093H306.212C305.864 129.093 305.748 128.9 305.748 128.553Z" fill="black"/>
<path d="M327.396 128.553V110.727C327.396 110.381 327.511 110.187 327.86 110.187H329.056C329.48 110.187 329.595 110.34 329.595 110.765L329.711 113.235C330.792 111.306 332.875 109.724 336.077 109.724C340.206 109.724 342.984 112.386 342.984 117.402V128.553C342.984 128.9 342.829 129.093 342.483 129.093H341.132C340.784 129.093 340.669 128.9 340.669 128.553V117.518C340.669 114.045 338.778 111.885 335.499 111.885C332.218 111.885 329.711 114.045 329.711 117.518V128.553C329.711 128.9 329.557 129.093 329.209 129.093H327.86C327.511 129.093 327.396 128.9 327.396 128.553Z" fill="black"/>
<path d="M357.724 127.357C361.93 127.357 365.094 124.154 365.094 119.64C365.094 115.126 361.93 111.885 357.724 111.885C353.48 111.885 350.355 115.126 350.355 119.64C350.355 124.154 353.48 127.357 357.724 127.357ZM348.078 119.64C348.078 114.006 352.245 109.724 357.724 109.724C363.203 109.724 367.332 114.006 367.332 119.64C367.332 125.273 363.203 129.556 357.724 129.556C352.245 129.556 348.078 125.273 348.078 119.64Z" fill="black"/>
<path d="M372.466 128.553V102.046C372.466 101.699 372.582 101.505 372.93 101.505H374.279C374.627 101.505 374.782 101.699 374.782 102.046V128.553C374.782 128.9 374.627 129.093 374.279 129.093H372.93C372.582 129.093 372.466 128.9 372.466 128.553Z" fill="black"/>
<path d="M389.52 127.357C393.726 127.357 396.89 124.154 396.89 119.64C396.89 115.126 393.726 111.885 389.52 111.885C385.276 111.885 382.151 115.126 382.151 119.64C382.151 124.154 385.276 127.357 389.52 127.357ZM379.874 119.64C379.874 114.006 384.041 109.724 389.52 109.724C394.999 109.724 399.128 114.006 399.128 119.64C399.128 125.273 394.999 129.556 389.52 129.556C384.041 129.556 379.874 125.273 379.874 119.64Z" fill="black"/>
<path d="M412.828 126.739C416.995 126.739 419.927 123.923 419.927 119.409C419.927 114.817 416.995 111.884 412.828 111.884C408.7 111.884 405.535 114.779 405.535 119.293C405.535 123.884 408.7 126.739 412.828 126.739ZM406.152 135.266C405.844 135.074 405.728 134.842 405.844 134.534L406.346 133.645C406.5 133.414 406.77 133.376 407.002 133.491C408.584 134.534 410.551 134.996 412.518 134.996C416.378 134.996 419.927 133.261 419.927 128.244V124.848C418.5 127.356 415.992 128.9 412.558 128.9C407.118 128.9 403.297 124.965 403.297 119.293C403.297 113.699 407.118 109.725 412.48 109.725C415.992 109.725 418.537 111.306 419.966 113.89L420.004 110.727C420.004 110.38 420.12 110.187 420.467 110.187H421.74C422.087 110.187 422.203 110.38 422.203 110.727V128.437C422.203 134.418 417.573 137.003 412.596 137.003C409.934 137.003 407.542 136.231 406.152 135.266Z" fill="black"/>
<path d="M428.301 110.727C428.301 110.38 428.417 110.188 428.765 110.188H430.114C430.463 110.188 430.579 110.38 430.579 110.727V128.553C430.579 128.9 430.463 129.093 430.114 129.093H428.765C428.417 129.093 428.301 128.9 428.301 128.553V110.727ZM427.917 103.473C427.917 102.624 428.61 101.931 429.459 101.931C430.308 101.931 430.963 102.624 430.963 103.473C430.963 104.322 430.308 105.017 429.459 105.017C428.61 105.017 427.917 104.322 427.917 103.473Z" fill="black"/>
<path d="M451.915 118.56C451.8 114.624 449.215 111.807 445.125 111.807C441.113 111.807 438.334 114.47 437.988 118.56H451.915ZM435.71 119.563C435.71 114.006 439.569 109.725 445.163 109.725C450.759 109.725 453.96 114.045 453.96 118.637C453.96 119.986 453.729 120.45 452.689 120.45H437.949C438.295 124.463 440.997 127.55 445.858 127.55C448.328 127.55 450.026 126.739 451.491 125.621C451.646 125.466 451.915 125.466 452.031 125.621L452.571 126.314C452.842 126.662 452.689 126.855 452.418 127.126C450.719 128.746 448.29 129.555 445.665 129.555C439.492 129.555 435.71 125.042 435.71 119.563Z" fill="black"/>
<path d="M458.131 126.777C457.86 126.43 457.86 126.161 458.053 125.813L458.517 125.235C458.708 124.965 459.057 124.926 459.365 125.272C460.485 126.507 461.911 127.473 464.072 127.473C466.465 127.473 468.162 126.393 468.162 124.232C468.162 122.303 466.85 121.414 464.998 120.643L462.798 119.717C460.523 118.753 458.517 117.402 458.517 114.663C458.517 111.614 461.102 109.725 464.149 109.725C466.272 109.725 468.239 110.612 469.551 112.27C469.784 112.541 469.744 112.85 469.513 113.119L469.088 113.621C468.742 114.006 468.51 113.968 468.162 113.621C466.966 112.309 465.693 111.73 464.227 111.73C462.452 111.73 460.753 112.618 460.753 114.586C460.753 116.553 462.143 117.249 464.227 118.097L465.963 118.829C468.432 119.833 470.439 121.261 470.439 124.193C470.439 127.665 467.468 129.555 464.111 129.555C461.062 129.555 459.133 128.013 458.131 126.777Z" fill="black"/>
<path d="M492.201 127.357C496.446 127.357 499.416 124.308 499.416 119.717C499.416 115.088 496.446 111.923 492.201 111.923C487.88 111.923 484.793 115.048 484.793 119.64C484.793 124.27 487.88 127.357 492.201 127.357ZM482.555 119.64C482.555 114.006 486.376 109.724 491.932 109.724C495.404 109.724 497.989 111.46 499.378 114.084L499.455 110.727C499.455 110.38 499.609 110.187 499.957 110.187H501.191C501.539 110.187 501.694 110.38 501.694 110.727V128.553C501.694 128.899 501.539 129.093 501.191 129.093H499.957C499.609 129.093 499.455 128.899 499.455 128.553L499.378 125.273C497.989 127.935 495.404 129.556 491.932 129.556C486.376 129.556 482.555 125.312 482.555 119.64Z" fill="black"/>
<path d="M509.606 125.466V112.154H507.136C506.788 112.154 506.597 111.961 506.597 111.614V110.727C506.597 110.38 506.788 110.187 507.136 110.187H509.606V105.711C509.606 105.364 509.76 105.171 510.107 105.171H511.419C511.767 105.171 511.921 105.364 511.921 105.711V110.187H515.161C515.509 110.187 515.701 110.38 515.701 110.727V111.614C515.701 111.961 515.509 112.154 515.161 112.154H511.921V125.118C511.921 126.701 512.46 127.241 513.657 127.241C513.966 127.241 514.545 127.163 514.854 127.126C515.47 127.049 515.625 127.241 515.625 127.626V128.553C515.625 129.131 514.274 129.324 513.309 129.324C510.802 129.324 509.606 128.013 509.606 125.466Z" fill="black"/>
<path d="M533.568 128.63L527.317 110.843C527.163 110.418 527.317 110.187 527.741 110.187H529.053C529.362 110.187 529.555 110.34 529.671 110.649L535.073 126.586L540.628 110.649C540.744 110.34 541.015 110.187 541.324 110.187H542.866C543.175 110.187 543.446 110.34 543.561 110.649L549.117 126.586L554.519 110.649C554.635 110.34 554.788 110.187 555.097 110.187H556.448C556.872 110.187 557.026 110.418 556.872 110.843L550.621 128.63C550.505 128.939 550.236 129.093 549.927 129.093H548.385C548.076 129.093 547.805 128.939 547.689 128.63L542.095 112.694L536.5 128.63C536.384 128.939 536.113 129.093 535.805 129.093H534.262C533.953 129.093 533.684 128.939 533.568 128.63Z" fill="black"/>
<path d="M569.222 127.357C573.428 127.357 576.592 124.154 576.592 119.64C576.592 115.126 573.428 111.885 569.222 111.885C564.978 111.885 561.853 115.126 561.853 119.64C561.853 124.154 564.978 127.357 569.222 127.357ZM559.576 119.64C559.576 114.006 563.743 109.724 569.222 109.724C574.701 109.724 578.83 114.006 578.83 119.64C578.83 125.273 574.701 129.556 569.222 129.556C563.743 129.556 559.576 125.273 559.576 119.64Z" fill="black"/>
<path d="M583.964 128.553V110.727C583.964 110.381 584.08 110.187 584.428 110.187H585.624C586.048 110.187 586.164 110.34 586.164 110.765L586.241 112.849C586.973 111.114 588.286 109.724 590.64 109.724C591.411 109.724 592.028 109.84 592.376 110.071C592.608 110.225 592.685 110.381 592.685 110.727V111.73C592.685 112.155 592.414 112.194 592.028 112.078C591.488 111.923 591.025 111.885 590.678 111.885C587.128 111.885 586.28 115.126 586.28 117.132V128.553C586.28 128.9 586.126 129.093 585.777 129.093H584.428C584.08 129.093 583.964 128.9 583.964 128.553Z" fill="black"/>
<path d="M597.392 128.553V102.046C597.392 101.699 597.508 101.505 597.856 101.505H599.205C599.554 101.505 599.708 101.699 599.708 102.046V120.643L609.045 110.496C609.238 110.265 609.432 110.187 609.701 110.187H611.477C611.901 110.187 611.901 110.496 611.668 110.727L604.569 118.251L612.71 128.475C612.942 128.784 612.826 129.093 612.364 129.093H610.936C610.628 129.093 610.435 129.015 610.241 128.746L603.142 119.833L599.708 123.499V128.553C599.708 128.9 599.554 129.093 599.205 129.093H597.856C597.508 129.093 597.392 128.9 597.392 128.553Z" fill="black"/>
<path d="M617.961 129.711C616.726 129.749 615.993 128.978 615.993 127.936C615.993 126.817 616.881 126.046 617.922 126.046C619.273 126.046 620.313 127.317 620.313 129.131C620.313 131.408 618.77 133.878 615.916 133.878V132.874C618.386 132.836 619.118 129.671 617.961 129.711Z" fill="black"/>
<path d="M641.189 127.357C645.434 127.357 648.404 124.308 648.404 119.717C648.404 115.088 645.434 111.923 641.189 111.923C636.868 111.923 633.781 115.048 633.781 119.64C633.781 124.27 636.868 127.357 641.189 127.357ZM631.542 119.64C631.542 114.006 635.363 109.724 640.919 109.724C644.353 109.724 646.939 111.383 648.366 114.006V102.045C648.366 101.699 648.481 101.506 648.829 101.506H650.179C650.526 101.506 650.681 101.699 650.681 102.045V128.553C650.681 128.899 650.526 129.093 650.179 129.093H648.944C648.597 129.093 648.443 128.899 648.443 128.553L648.366 125.273C646.976 127.935 644.392 129.556 640.919 129.556C635.363 129.556 631.542 125.312 631.542 119.64Z" fill="black"/>
<path d="M656.74 110.727C656.74 110.38 656.856 110.188 657.204 110.188H658.553C658.902 110.188 659.018 110.38 659.018 110.727V128.553C659.018 128.9 658.902 129.093 658.553 129.093H657.204C656.856 129.093 656.74 128.9 656.74 128.553V110.727ZM656.355 103.473C656.355 102.624 657.049 101.931 657.898 101.931C658.747 101.931 659.402 102.624 659.402 103.473C659.402 104.322 658.747 105.017 657.898 105.017C657.049 105.017 656.355 104.322 656.355 103.473Z" fill="black"/>
<path d="M673.679 126.739C677.846 126.739 680.778 123.923 680.778 119.409C680.778 114.817 677.846 111.884 673.679 111.884C669.551 111.884 666.386 114.779 666.386 119.293C666.386 123.884 669.551 126.739 673.679 126.739ZM667.004 135.266C666.695 135.074 666.579 134.842 666.695 134.534L667.198 133.645C667.351 133.414 667.622 133.376 667.853 133.491C669.435 134.534 671.402 134.996 673.37 134.996C677.229 134.996 680.778 133.261 680.778 128.244V124.848C679.351 127.356 676.843 128.9 673.41 128.9C667.969 128.9 664.148 124.965 664.148 119.293C664.148 113.699 667.969 109.725 673.332 109.725C676.843 109.725 679.389 111.306 680.817 113.89L680.855 110.727C680.855 110.38 680.971 110.187 681.318 110.187H682.591C682.938 110.187 683.055 110.38 683.055 110.727V128.437C683.055 134.418 678.424 137.003 673.447 137.003C670.785 137.003 668.393 136.231 667.004 135.266Z" fill="black"/>
<path d="M689.154 110.727C689.154 110.38 689.269 110.188 689.618 110.188H690.967C691.315 110.188 691.431 110.38 691.431 110.727V128.553C691.431 128.9 691.315 129.093 690.967 129.093H689.618C689.269 129.093 689.154 128.9 689.154 128.553V110.727ZM688.769 103.473C688.769 102.624 689.463 101.931 690.312 101.931C691.16 101.931 691.817 102.624 691.817 103.473C691.817 104.322 691.16 105.017 690.312 105.017C689.463 105.017 688.769 104.322 688.769 103.473Z" fill="black"/>
<path d="M698.994 125.466V112.154H696.525C696.177 112.154 695.985 111.961 695.985 111.614V110.727C695.985 110.38 696.177 110.187 696.525 110.187H698.994V105.711C698.994 105.364 699.148 105.171 699.495 105.171H700.808C701.155 105.171 701.309 105.364 701.309 105.711V110.187H704.549C704.897 110.187 705.09 110.38 705.09 110.727V111.614C705.09 111.961 704.897 112.154 704.549 112.154H701.309V125.118C701.309 126.701 701.849 127.241 703.045 127.241C703.354 127.241 703.933 127.163 704.242 127.126C704.858 127.049 705.013 127.241 705.013 127.626V128.553C705.013 129.131 703.662 129.324 702.697 129.324C700.19 129.324 698.994 128.013 698.994 125.466Z" fill="black"/>
<path d="M718.519 127.357C722.764 127.357 725.734 124.308 725.734 119.717C725.734 115.088 722.764 111.923 718.519 111.923C714.198 111.923 711.111 115.048 711.111 119.64C711.111 124.27 714.198 127.357 718.519 127.357ZM708.873 119.64C708.873 114.006 712.693 109.724 718.249 109.724C721.722 109.724 724.306 111.46 725.696 114.084L725.773 110.727C725.773 110.38 725.927 110.187 726.274 110.187H727.509C727.856 110.187 728.011 110.38 728.011 110.727V128.553C728.011 128.899 727.856 129.093 727.509 129.093H726.274C725.927 129.093 725.773 128.899 725.773 128.553L725.696 125.273C724.306 127.935 721.722 129.556 718.249 129.556C712.693 129.556 708.873 125.312 708.873 119.64Z" fill="black"/>
<path d="M734.07 128.553V102.046C734.07 101.699 734.186 101.505 734.534 101.505H735.884C736.232 101.505 736.386 101.699 736.386 102.046V128.553C736.386 128.9 736.232 129.093 735.884 129.093H734.534C734.186 129.093 734.07 128.9 734.07 128.553Z" fill="black"/>
<path d="M742.443 128.553V102.046C742.443 101.699 742.559 101.505 742.907 101.505H744.256C744.605 101.505 744.759 101.699 744.759 102.046V128.553C744.759 128.9 744.605 129.093 744.256 129.093H742.907C742.559 129.093 742.443 128.9 742.443 128.553Z" fill="black"/>
<path d="M754.328 135.883L756.991 129.171L749.736 110.842C749.583 110.419 749.736 110.187 750.161 110.187H751.474C751.781 110.187 751.974 110.341 752.09 110.649L758.187 126.546L764.284 110.649C764.399 110.341 764.553 110.187 764.862 110.187H766.213C766.637 110.187 766.791 110.419 766.637 110.842L756.682 135.961C756.567 136.27 756.335 136.423 756.027 136.423H754.715C754.328 136.423 754.213 136.193 754.328 135.883Z" fill="black"/>
<path d="M778.832 126.777C778.561 126.43 778.561 126.161 778.754 125.813L779.218 125.235C779.41 124.965 779.758 124.926 780.067 125.272C781.186 126.507 782.612 127.473 784.773 127.473C787.166 127.473 788.863 126.393 788.863 124.232C788.863 122.303 787.551 121.414 785.699 120.643L783.499 119.717C781.223 118.753 779.218 117.402 779.218 114.663C779.218 111.614 781.803 109.725 784.851 109.725C786.973 109.725 788.94 110.612 790.252 112.27C790.485 112.541 790.446 112.85 790.214 113.119L789.789 113.621C789.443 114.006 789.211 113.968 788.863 113.621C787.667 112.309 786.393 111.73 784.928 111.73C783.153 111.73 781.455 112.618 781.455 114.586C781.455 116.553 782.844 117.249 784.928 118.097L786.664 118.829C789.134 119.833 791.14 121.261 791.14 124.193C791.14 127.665 788.169 129.555 784.812 129.555C781.764 129.555 779.835 128.013 778.832 126.777Z" fill="black"/>
<path d="M805.958 127.357C810.241 127.357 813.327 124.27 813.327 119.64C813.327 115.048 810.241 111.923 805.958 111.923C801.713 111.923 798.743 115.088 798.743 119.717C798.743 124.308 801.713 127.357 805.958 127.357ZM796.466 135.884V110.727C796.466 110.38 796.582 110.187 796.93 110.187H798.204C798.55 110.187 798.666 110.38 798.666 110.727L798.743 114.084C800.171 111.46 802.756 109.724 806.228 109.724C811.784 109.724 815.605 114.006 815.605 119.64C815.605 125.312 811.784 129.556 806.228 129.556C802.756 129.556 800.171 127.935 798.782 125.35V135.884C798.782 136.23 798.627 136.423 798.279 136.423H796.93C796.582 136.423 796.466 136.23 796.466 135.884Z" fill="black"/>
<path d="M835.939 118.56C835.824 114.624 833.239 111.807 829.149 111.807C825.137 111.807 822.358 114.47 822.012 118.56H835.939ZM819.734 119.563C819.734 114.006 823.593 109.725 829.187 109.725C834.783 109.725 837.984 114.045 837.984 118.637C837.984 119.986 837.753 120.45 836.712 120.45H821.973C822.319 124.463 825.021 127.55 829.882 127.55C832.352 127.55 834.05 126.739 835.514 125.621C835.67 125.466 835.939 125.466 836.055 125.621L836.595 126.314C836.866 126.662 836.712 126.855 836.442 127.126C834.743 128.746 832.314 129.555 829.689 129.555C823.516 129.555 819.734 125.042 819.734 119.563Z" fill="black"/>
<path d="M851.8 127.357C856.045 127.357 859.015 124.308 859.015 119.717C859.015 115.088 856.045 111.923 851.8 111.923C847.478 111.923 844.392 115.048 844.392 119.64C844.392 124.27 847.478 127.357 851.8 127.357ZM842.153 119.64C842.153 114.006 845.974 109.724 851.53 109.724C855.003 109.724 857.587 111.46 858.976 114.084L859.054 110.727C859.054 110.38 859.208 110.187 859.554 110.187H860.79C861.137 110.187 861.292 110.38 861.292 110.727V128.553C861.292 128.899 861.137 129.093 860.79 129.093H859.554C859.208 129.093 859.054 128.899 859.054 128.553L858.976 125.273C857.587 127.935 855.003 129.556 851.53 129.556C845.974 129.556 842.153 125.312 842.153 119.64Z" fill="black"/>
<path d="M867.351 128.553V102.046C867.351 101.699 867.467 101.505 867.815 101.505H869.164C869.513 101.505 869.667 101.699 869.667 102.046V120.643L879.004 110.496C879.197 110.265 879.391 110.187 879.66 110.187H881.436C881.86 110.187 881.86 110.496 881.627 110.727L874.528 118.251L882.669 128.475C882.901 128.784 882.785 129.093 882.323 129.093H880.895C880.586 129.093 880.393 129.015 880.2 128.746L873.101 119.833L869.667 123.499V128.553C869.667 128.9 869.513 129.093 869.164 129.093H867.815C867.467 129.093 867.351 128.9 867.351 128.553Z" fill="black"/>
<path d="M887.532 110.727C887.532 110.38 887.647 110.188 887.996 110.188H889.345C889.693 110.188 889.809 110.38 889.809 110.727V128.553C889.809 128.9 889.693 129.093 889.345 129.093H887.996C887.647 129.093 887.532 128.9 887.532 128.553V110.727ZM887.147 103.473C887.147 102.624 887.841 101.931 888.689 101.931C889.538 101.931 890.195 102.624 890.195 103.473C890.195 104.322 889.538 105.017 888.689 105.017C887.841 105.017 887.147 104.322 887.147 103.473Z" fill="black"/>
<path d="M895.906 128.553V110.727C895.906 110.381 896.022 110.187 896.37 110.187H897.566C897.99 110.187 898.106 110.34 898.106 110.765L898.221 113.235C899.302 111.306 901.385 109.724 904.588 109.724C908.717 109.724 911.495 112.386 911.495 117.402V128.553C911.495 128.9 911.34 129.093 910.992 129.093H909.642C909.295 129.093 909.179 128.9 909.179 128.553V117.518C909.179 114.045 907.288 111.885 904.009 111.885C900.728 111.885 898.221 114.045 898.221 117.518V128.553C898.221 128.9 898.067 129.093 897.719 129.093H896.37C896.022 129.093 895.906 128.9 895.906 128.553Z" fill="black"/>
<path d="M926.119 126.739C930.286 126.739 933.218 123.923 933.218 119.409C933.218 114.817 930.286 111.884 926.119 111.884C921.991 111.884 918.827 114.779 918.827 119.293C918.827 123.884 921.991 126.739 926.119 126.739ZM919.444 135.266C919.136 135.074 919.02 134.842 919.136 134.534L919.637 133.645C919.791 133.414 920.062 133.376 920.294 133.491C921.875 134.534 923.843 134.996 925.81 134.996C929.669 134.996 933.218 133.261 933.218 128.244V124.848C931.792 127.356 929.284 128.9 925.849 128.9C920.409 128.9 916.588 124.965 916.588 119.293C916.588 113.699 920.409 109.725 925.772 109.725C929.284 109.725 931.829 111.306 933.258 113.89L933.296 110.727C933.296 110.38 933.412 110.187 933.759 110.187H935.032C935.379 110.187 935.495 110.38 935.495 110.727V128.437C935.495 134.418 930.864 137.003 925.887 137.003C923.225 137.003 920.833 136.231 919.444 135.266Z" fill="black"/>
</g>
</svg>
